<?xml version="1.0" encoding="UTF-8"?>
<svg version="1.1" xmlns="http://www.w3.org/2000/svg" width="1280" height="1226">
<path d="M0 0 C2.5993361 1.10294668 5.20214015 2.1976248 7.8046875 3.29296875 C8.86567909 3.74108665 8.86567909 3.74108665 9.94810486 4.19825745 C19.79492107 8.34747954 29.71456921 12.31834692 39.625 16.3125 C41.65622342 17.13218843 43.68739173 17.95201345 45.71850586 18.77197266 C49.80061144 20.41985479 53.88291016 22.06725706 57.96533203 23.71435547 C67.16715278 27.42773665 76.3648751 31.1512413 85.5625 34.875 C87.30126891 35.57885895 89.04003844 36.28271638 90.77880859 36.98657227 C106.65254532 43.41274107 122.52313491 49.84666741 138.39306641 56.28222656 C145.30182893 59.08381503 152.21091144 61.8846142 159.1199646 64.68548584 C162.97582234 66.24862613 166.83166018 67.8118155 170.6875 69.375 C172.22916657 70.00000024 173.77083324 70.62500024 175.3125 71.25 C178.39583333 72.5 181.47916667 73.75 184.5625 75 C185.32565018 75.30938507 186.08880035 75.61877014 186.87507629 75.93753052 C188.41648903 76.56242785 189.95790138 77.18732612 191.49931335 77.81222534 C195.35736201 79.37630394 199.21541736 80.94036604 203.07348633 82.50439453 C209.96474975 85.29807271 216.85597171 88.09185285 223.74693298 90.88627625 C226.77616044 92.11468232 229.80541795 93.34301429 232.83468628 94.57131958 C234.36653381 95.1924558 235.89837377 95.81361071 237.4302063 96.43478394 C246.18621469 99.98530217 254.94343214 103.5327996 263.703125 107.07421875 C267.09380024 108.44518829 270.48442658 109.81627866 273.875 111.1875 C274.73530823 111.53542603 275.59561646 111.88335205 276.48199463 112.24182129 C292.79815032 118.8419283 309.09603705 125.48651088 325.39294434 132.13397217 C347.04317612 140.96306082 368.72088365 149.72290112 390.41056824 158.45452881 C392.604885 159.33918219 394.79843274 160.22574572 396.99116516 161.11431885 C402.17141986 163.21282786 407.35620395 165.29541473 412.56419277 167.32432461 C414.45079114 168.06088306 416.33480695 168.80367979 418.21809387 169.54866028 C420.59098769 170.48580489 422.96833502 171.41177552 425.35063171 172.32475281 C426.41739639 172.74908096 427.48416107 173.17340912 428.58325195 173.6105957 C429.52280228 173.97643265 430.4623526 174.34226959 431.43037415 174.7191925 C436.81193974 177.73676948 439.47066886 183.45555201 442.25 188.75 C442.62189453 189.39839844 442.99378906 190.04679688 443.37695312 190.71484375 C448.12235202 199.81681928 444.69477213 210.1785345 442.54492188 219.69921875 C442.18135338 221.34763008 442.18135338 221.34763008 441.81044006 223.02934265 C441.01560228 226.62521839 440.21107735 230.21884816 439.40625 233.8125 C438.84901665 236.32295696 438.29234398 238.83353843 437.73620605 241.34423828 C436.57353969 246.58670255 435.40667843 251.82820309 434.23583984 257.06884766 C432.73335027 263.79403143 431.23867173 270.5209254 429.74660492 277.24842834 C428.32323382 283.6661926 426.896137 290.08312782 425.46875 296.5 C425.19610825 297.72657318 424.92346649 298.95314636 424.64256287 300.21688843 C423.87349898 303.67363452 423.10218692 307.12987042 422.33007812 310.5859375 C421.98717491 312.1287867 421.98717491 312.1287867 421.63734436 313.70280457 C421.427061 314.64183121 421.21677765 315.58085785 421.00012207 316.54833984 C420.81798409 317.36458832 420.6358461 318.18083679 420.44818878 319.02182007 C419.9375 321.125 419.9375 321.125 418.9375 324.125 C420.36997574 324.11500725 420.36997574 324.11500725 421.83139038 324.10481262 C430.86395093 324.04380096 439.89646926 323.99893152 448.92918968 323.96956348 C453.57218438 323.95395713 458.21501174 323.93281156 462.85791016 323.89868164 C467.34480035 323.86590774 471.83153031 323.84810921 476.31853104 323.84036827 C478.0240188 323.83485695 479.72949854 323.82409526 481.43491745 323.80780983 C503.52510517 323.60539737 503.52510517 323.60539737 512.3671875 331.13671875 C518.63289291 339.07016167 518.53214879 346.51151735 518.46875 356.28125 C518.4714497 357.75281022 518.47533608 359.22436869 518.48034668 360.69592285 C518.4862194 363.76897285 518.47775166 366.84155544 518.45898438 369.91455078 C518.43619535 373.83517928 518.44933055 377.7547122 518.47327423 381.6753006 C518.48779316 384.71071488 518.48309859 387.7458734 518.47276306 390.78129578 C518.47011254 392.22605014 518.473306 393.67082844 518.48268127 395.11555481 C518.52885095 404.22798745 518.26591744 410.8793703 512.296875 418.11328125 C511.76578125 418.55027344 511.2346875 418.98726563 510.6875 419.4375 C509.90632813 420.11232422 509.90632813 420.11232422 509.109375 420.80078125 C492.77553567 430.75972285 473.76114615 425.125 454.9375 425.125 C454.9375 478.585 454.9375 532.045 454.9375 587.125 C478.3675 587.125 501.7975 587.125 525.9375 587.125 C543.9375 605.125 543.9375 605.125 545.6953125 613.6640625 C545.57619148 616.41708171 545.37604185 619.02737876 545.0625 621.75 C544.97179751 623.16092764 544.88974092 624.57243811 544.81640625 625.984375 C544.60707417 629.38020657 544.31469497 632.74443042 543.9375 636.125 C545.00967773 636.10945572 546.08185547 636.09391144 547.18652344 636.07789612 C557.30855147 635.93577275 567.43037613 635.83095527 577.55317688 635.7623148 C582.75706686 635.72583859 587.96014909 635.6763912 593.16357422 635.59692383 C598.18867894 635.52066322 603.21300857 635.47896751 608.23864746 635.4608593 C610.15242714 635.44796107 612.06616609 635.42277272 613.97961426 635.3848896 C630.85911005 635.06410405 630.85911005 635.06410405 635.48828125 638.98022461 C636.63962103 640.36048318 637.78920961 641.74220349 638.9375 643.125 C639.87571091 643.82685425 640.81392181 644.5287085 641.78056335 645.25183105 C646.74776541 649.18601431 649.91613675 652.44060945 651.01309204 658.83914185 C651.64707619 664.69763244 651.65594595 670.55488265 651.64453125 676.44140625 C651.66977237 678.62461404 651.69721163 680.8077974 651.72673035 682.99095154 C651.77439004 687.55824469 651.77902259 692.12321327 651.75610352 696.69067383 C651.73733189 701.34611836 651.78571322 705.99265252 651.8996582 710.64672852 C652.98684655 755.75986659 652.98684655 755.75986659 643.61328125 766.20703125 C630.35688236 777.64380092 606.56728826 774.01116986 590.37164307 773.36096191 C585.24390146 773.17496734 580.11453554 773.09423218 574.984375 773.00390625 C564.96450601 772.81232796 554.95182454 772.50623188 544.9375 772.125 C545.0317627 772.96981934 545.12602539 773.81463867 545.22314453 774.68505859 C545.53574006 777.91609167 545.75790838 781.13934593 545.92626953 784.38085938 C546.01518641 785.76401086 546.13684321 787.1455547 546.29541016 788.52246094 C547.26596229 797.18765192 545.5119507 803.58533526 540.28179932 810.64788818 C533.53332458 818.41333335 526.80601853 821.96100898 516.58177376 822.70735741 C508.64420864 823.07976806 500.71863882 822.75463466 492.78863525 822.36096191 C488.62639636 822.17444141 484.46211662 822.09412757 480.296875 822.00390625 C472.17157063 821.81271849 464.05606579 821.50698788 455.9375 821.125 C455.94210896 822.30537244 455.94671793 823.48574488 455.95146656 824.70188618 C456.05986276 852.75033466 456.14225598 880.7987727 456.19282665 908.84738581 C456.19907984 912.30312411 456.20555148 915.75886197 456.2121582 919.21459961 C456.21346976 919.90254621 456.21478131 920.5904928 456.2161326 921.29928627 C456.23786207 932.42404923 456.27726991 943.54868241 456.32326398 954.67336849 C456.37009735 966.09671908 456.39743585 977.51996456 456.40794247 988.94341391 C456.41445419 995.35630909 456.42973186 1001.76891033 456.46615028 1008.1817112 C456.50017386 1014.22194394 456.51053986 1020.26176259 456.50303841 1026.30208206 C456.50441008 1028.51475083 456.51430415 1030.72743392 456.53352737 1032.94001961 C456.67447438 1050.00492844 454.90273053 1059.66923038 442.77186567 1072.10663551 C440.72514521 1074.16196011 438.66648343 1076.20484931 436.60717773 1078.24755859 C435.12715678 1079.7373598 433.64840499 1081.22842274 432.17082214 1082.72064209 C428.17207138 1086.75089495 424.15462872 1090.76200418 420.13248706 1094.76889753 C416.76936245 1098.12284451 413.41574039 1101.48621239 410.06209236 1104.84963095 C402.1474964 1112.78710089 394.21782071 1120.70927341 386.27807617 1128.62158203 C378.1019501 1136.76990375 369.94968388 1144.94153675 361.80913967 1153.12539423 C354.80429025 1160.16607069 347.7858531 1167.19299072 340.75621945 1174.20892203 C336.56433777 1178.39277729 332.37746819 1182.58133757 328.20321465 1186.78278732 C324.27656344 1190.73365789 320.33309773 1194.66695312 316.37634468 1198.58766937 C314.93205648 1200.0243377 313.49361945 1201.4669176 312.06173706 1202.91595078 C310.09616391 1204.90310372 308.10993646 1206.86715777 306.11741638 1208.82723999 C305.56435694 1209.39659661 305.01129749 1209.96595322 304.44147867 1210.55256307 C296.05650944 1218.66878046 285.83089958 1220.87323495 274.5009594 1220.79051876 C272.70282413 1220.8072617 272.70282413 1220.8072617 270.8683629 1220.82434288 C267.56172302 1220.85010654 264.25643198 1220.85385096 260.94978916 1220.84795547 C257.34459713 1220.84699588 253.73960289 1220.87483214 250.13450634 1220.89882809 C242.9938396 1220.94181044 235.8533406 1220.95809801 228.71255874 1220.9660431 C220.15542847 1220.97678856 211.59848902 1221.01624609 203.04145291 1221.05597959 C182.36499836 1221.15046694 161.68853084 1221.19382112 141.0119059 1221.22986591 C131.22660178 1221.24717518 121.44131286 1221.27004478 111.65602138 1221.29331025 C78.14497042 1221.37262873 44.63392058 1221.43905739 11.12278557 1221.46827602 C9.02054681 1221.47014354 6.91830806 1221.47201478 4.81606931 1221.47388971 C3.25233597 1221.47528087 3.25233597 1221.47528087 1.65701206 1221.47670013 C-3.624492 1221.48140805 -8.90599602 1221.48616623 -14.1875 1221.4909668 C-15.2356158 1221.49190603 -16.2837316 1221.49284526 -17.36360849 1221.49381295 C-51.35171505 1221.52475759 -85.33909512 1221.62691446 -119.32689757 1221.77101536 C-155.28086865 1221.92317345 -191.23441793 1222.00967974 -227.18871772 1222.02194458 C-231.13703099 1222.02354006 -235.08534403 1222.02540959 -239.03365707 1222.02748299 C-240.00580654 1222.0279641 -240.97795601 1222.02844521 -241.97956456 1222.0289409 C-257.60806997 1222.03822915 -273.2357638 1222.10719451 -288.86398516 1222.19778264 C-304.57736638 1222.28737671 -320.28975389 1222.31014884 -336.00333638 1222.26559078 C-345.33235622 1222.24106945 -354.65809683 1222.26620478 -363.98665676 1222.36367181 C-370.2275879 1222.42387729 -376.4662592 1222.41795719 -382.70720039 1222.35959348 C-386.25860204 1222.32822031 -389.80375101 1222.32424717 -393.35459651 1222.40129118 C-405.79694453 1222.62117525 -416.45805848 1222.72747838 -426.34050834 1214.37729847 C-432.91071009 1207.9152589 -437.90020791 1201.32890576 -438.38196872 1191.9160466 C-438.38607477 1189.77149742 -438.30800898 1187.6390743 -438.2270813 1185.4961853 C-438.2349578 1183.90904488 -438.25076824 1182.32192799 -438.27368629 1180.7349335 C-438.31346869 1176.42850763 -438.24266793 1172.13031675 -438.15168118 1167.82493973 C-438.07324921 1163.16266476 -438.1003014 1158.50077792 -438.11392212 1153.83802795 C-438.12331781 1145.77832059 -438.06730829 1137.72125513 -437.96564102 1129.66221237 C-437.81875352 1118.01097057 -437.77241566 1106.36099377 -437.74985717 1094.70892651 C-437.71055402 1075.80067123 -437.59102091 1056.89382127 -437.42041016 1037.98632812 C-437.25494562 1019.62995386 -437.12765434 1001.27396259 -437.05126953 982.91699219 C-437.044176 981.21701775 -437.044176 981.21701775 -437.03693916 979.48270039 C-437.01344686 973.79664306 -436.9907005 968.11058303 -436.9683249 962.42452121 C-436.78201184 915.32370793 -436.46523121 868.22442683 -436.0625 821.125 C-436.9120224 821.16497101 -437.7615448 821.20494202 -438.6368103 821.24612427 C-446.72390332 821.60988253 -454.80817821 821.88231063 -462.90163231 822.05761909 C-467.06139816 822.15080324 -471.21430351 822.27660122 -475.37011719 822.48291016 C-505.85350485 823.95653617 -505.85350485 823.95653617 -515.9143219 815.02238464 C-522.381612 808.25879669 -526.98346319 802.17185644 -526.77403069 792.43400002 C-526.63928426 790.44602639 -526.41543624 788.47927022 -526.1875 786.5 C-526.09679751 785.08907236 -526.01474092 783.67756189 -525.94140625 782.265625 C-525.73207417 778.86979343 -525.43969497 775.50556958 -525.0625 772.125 C-526.63745743 772.18495651 -526.63745743 772.18495651 -528.24423218 772.24612427 C-538.21488248 772.61348759 -548.18413586 772.88197466 -558.16005516 773.05761909 C-563.28766488 773.15097498 -568.40975061 773.27717926 -573.53417969 773.48291016 C-613.50530398 775.03743887 -613.50530398 775.03743887 -623.74609375 766.21484375 C-636.57096375 751.93781039 -632.2870399 724.65567396 -631.82305908 707.05743408 C-631.72542036 702.38668125 -631.72884911 697.71830337 -631.73430157 693.0467062 C-631.7318493 688.52919844 -631.68242808 684.01320494 -631.61728859 679.49620247 C-631.58879778 677.34624708 -631.57094638 675.1961218 -631.56424522 673.04598808 C-631.44151906 654.27563937 -631.44151906 654.27563937 -625.71411133 648.51977539 C-624.18059014 647.36522869 -622.63045635 646.23232932 -621.0625 645.125 C-619.71315591 643.67936491 -618.394525 642.20371125 -617.125 640.6875 C-615.47854016 638.76079168 -613.85584064 636.91834064 -612.0625 635.125 C-609.29123271 634.93689781 -606.62069478 634.87323316 -603.84912109 634.89794922 C-603.0002684 634.89765717 -602.15141571 634.89736511 -601.27684021 634.89706421 C-598.46310301 634.89846072 -595.64962861 634.91403697 -592.8359375 634.9296875 C-590.88823593 634.93341649 -588.94053248 634.936264 -586.99282837 634.93826294 C-581.86025842 634.94590839 -576.72780121 634.96556468 -571.59527588 634.9876709 C-566.36040777 635.00810972 -561.12552149 635.01726045 -555.890625 635.02734375 C-545.61453373 635.04880973 -535.33852623 635.08295664 -525.0625 635.125 C-525.1567627 634.28018066 -525.25102539 633.43536133 -525.34814453 632.56494141 C-525.66074006 629.33390833 -525.88290838 626.11065407 -526.05126953 622.86914062 C-526.14018641 621.48598914 -526.26184321 620.1044453 -526.42041016 618.72753906 C-527.04934018 613.11238602 -526.2969244 610.1215594 -525.0625 604.125 C-519.1225 598.185 -513.1825 592.245 -507.0625 586.125 C-483.9625 586.125 -460.8625 586.125 -437.0625 586.125 C-437.0625 532.995 -437.0625 479.865 -437.0625 425.125 C-450.5925 425.125 -464.1225 425.125 -478.0625 425.125 C-487.07122623 422.87281844 -492.96186817 419.89885454 -498.0625 412.125 C-499.71230599 407.88997375 -500.32098735 404.33704086 -500.35302734 399.8034668 C-500.36578705 398.57166183 -500.37854675 397.33985687 -500.39169312 396.07072449 C-500.39391876 394.75187759 -500.39614441 393.4330307 -500.3984375 392.07421875 C-500.40487412 390.6918779 -500.41160311 389.30953839 -500.41860962 387.92720032 C-500.43055356 385.0348495 -500.43429349 382.14261786 -500.43310547 379.25024414 C-500.43290257 375.56512702 -500.46018676 371.88078356 -500.49464989 368.19584942 C-500.51701693 365.34144157 -500.52094002 362.48721695 -500.51988602 359.63273048 C-500.52335771 357.62046711 -500.54495898 355.60826092 -500.56698608 353.59611511 C-500.52288773 344.70040826 -498.97144451 338.8000894 -494.3125 331.3125 C-488.80432048 325.95732546 -482.10303022 323.99758505 -474.57025146 324.00474548 C-473.45408447 324.00337082 -472.33791748 324.00199615 -471.18792725 324.00057983 C-469.96801086 324.00417511 -468.74809448 324.00777039 -467.49121094 324.01147461 C-466.20315552 324.01132858 -464.9151001 324.01118256 -463.5880127 324.0110321 C-460.05942251 324.01074523 -456.53086633 324.01662417 -453.00228405 324.02360606 C-449.31339376 324.02985793 -445.62450268 324.03044485 -441.93560791 324.03163147 C-434.95170485 324.03473937 -427.96781745 324.04294549 -420.98392129 324.05298096 C-413.03234958 324.06415887 -405.08077712 324.06965678 -397.1291995 324.07467639 C-380.77362384 324.08512854 -364.41806392 324.10271753 -348.0625 324.125 C-347.91065247 322.3737532 -347.91065247 322.3737532 -347.7557373 320.58712769 C-346.96797789 313.55046593 -345.4206876 306.65380851 -343.97070312 299.73095703 C-343.64983156 298.18372849 -343.32932577 296.63642406 -343.00915527 295.08905029 C-342.14046877 290.89596525 -341.26665713 286.70396315 -340.39190102 282.51214075 C-339.46692096 278.07526821 -338.54666192 273.63741653 -337.62585449 269.19967651 C-335.87271397 260.75421084 -334.11528546 252.30964336 -332.35634947 243.86538303 C-330.39028763 234.42564731 -328.42920893 224.98487874 -326.46848297 215.54403353 C-324.0208271 203.75887273 -321.5721037 191.97393818 -319.11621094 180.19049072 C-318.9361488 179.32654292 -318.75608665 178.46259512 -318.57056808 177.57246709 C-317.86277374 174.17662522 -317.15494304 170.78079094 -316.44698334 167.38498354 C-314.52909485 158.1846947 -312.61720395 148.98326265 -310.72296906 139.77807045 C-309.86971343 135.63208241 -309.01288156 131.48683848 -308.15550232 127.34170151 C-307.78724226 125.55563022 -307.42093071 123.76915582 -307.05677795 121.98224258 C-306.57984095 119.6419086 -306.09643868 117.30300631 -305.61132812 114.96435547 C-305.35613403 113.71927216 -305.10093994 112.47418884 -304.8380127 111.19137573 C-303.11676194 104.38555351 -300.1460926 102.53384339 -294.24804688 99.00585938 C-293.21744141 98.40580078 -292.18683594 97.80574219 -291.125 97.1875 C-290.12919922 96.56037109 -289.13339844 95.93324219 -288.10742188 95.28710938 C-287.11419922 94.70896484 -286.12097656 94.13082031 -285.09765625 93.53515625 C-284.2044165 93.00027588 -283.31117676 92.46539551 -282.39086914 91.91430664 C-277.18755217 90.68036519 -273.03388357 92.45079982 -268.0625 94.125 C-266.70737556 94.56630501 -266.70737556 94.56630501 -265.32487488 95.01652527 C-262.46833262 95.9644771 -259.62630354 96.94830094 -256.78515625 97.94140625 C-255.72116608 98.30998749 -254.6571759 98.67856873 -253.5609436 99.05831909 C-250.08110756 100.26465262 -246.60305394 101.47603901 -243.125 102.6875 C-240.67630745 103.5375345 -238.22749363 104.38721972 -235.77856445 105.23657227 C-231.35413484 106.77144838 -226.93007157 108.30736432 -222.50658321 109.84495068 C-214.697564 112.55918553 -206.88484691 115.2626225 -199.0703125 117.9609375 C-194.63017015 119.49468115 -190.19008468 121.02858942 -185.75 122.5625 C-184.67348175 122.93430389 -183.5969635 123.30610779 -182.48782349 123.68917847 C-171.77510552 127.3906059 -161.06860904 131.10634191 -150.39453125 134.91796875 C-149.17753792 135.35172066 -149.17753792 135.35172066 -147.93595886 135.79423523 C-144.23887671 137.11261052 -140.54431008 138.43724684 -136.85424805 139.77514648 C-135.59040597 140.22790827 -134.32649475 140.68047712 -133.0625 141.1328125 C-131.99 141.52098145 -130.9175 141.90915039 -129.8125 142.30908203 C-126.90145243 143.3146279 -126.90145243 143.3146279 -123.0625 143.125 C-122.6907666 142.45670166 -122.3190332 141.78840332 -121.93603516 141.09985352 C-114.89635357 128.45554407 -107.80142526 115.85825194 -100.41552734 103.41308594 C-88.85641388 83.8656281 -77.5607669 64.16155797 -66.23828125 44.4765625 C-63.13041173 39.07449562 -60.01065573 33.67940889 -56.88671875 28.28662109 C-55.04809827 25.10003982 -53.22667683 21.90403352 -51.40625 18.70703125 C-50.25053046 16.70021525 -49.09430378 14.6936912 -47.9375 12.6875 C-47.41720215 11.76356445 -46.8969043 10.83962891 -46.36083984 9.88769531 C-41.84846224 2.11973831 -41.84846224 2.11973831 -37.0625 0.125 C-36.45051758 -0.13531006 -35.83853516 -0.39562012 -35.20800781 -0.66381836 C-33.07321227 -1.5417417 -30.92007277 -2.33865877 -28.75 -3.125 C-28.02876953 -3.40601563 -27.30753906 -3.68703125 -26.56445312 -3.9765625 C-16.60465762 -7.58531352 -9.27260632 -4.00893992 0 0 Z M-16.0625 36.125 C-21.06269604 42.19176062 -24.70331903 49.57653715 -28.55181885 56.39685059 C-30.30580756 59.50443685 -32.07154066 62.60534649 -33.8359375 65.70703125 C-34.37092361 66.64837418 -34.37092361 66.64837418 -34.91671753 67.60873413 C-38.29922208 73.5548495 -41.73426681 79.46969138 -45.1875 85.375 C-45.75734619 86.34977295 -46.32719238 87.3245459 -46.91430664 88.32885742 C-48.05885795 90.28554534 -49.20379362 92.24200849 -50.34912109 94.19824219 C-53.23631186 99.13008073 -56.11887167 104.06461788 -59 109 C-59.56855713 109.97356445 -60.13711426 110.94712891 -60.72290039 111.95019531 C-63.86441143 117.33564281 -66.99151684 122.72913534 -70.1015625 128.1328125 C-70.43859695 128.71819794 -70.77563141 129.30358337 -71.12287903 129.90670776 C-72.75137115 132.73585721 -74.3779239 135.56609507 -76.00170898 138.39794922 C-78.94876992 143.52393912 -81.92141655 148.58984831 -85.21264648 153.50390625 C-86.2946555 155.26277711 -86.2946555 155.26277711 -86.0625 158.125 C-85.50652634 158.3171962 -84.95055267 158.5093924 -84.37773132 158.70741272 C-60.42998877 166.98652024 -36.48300803 175.26747323 -12.5625 183.625 C3.13678035 189.10959968 18.84654412 194.5633694 34.5625 200 C36.19794266 200.56577255 36.19794266 200.56577255 37.86642456 201.14297485 C42.27578299 202.66834702 46.68514815 204.19369973 51.0945282 205.7190094 C62.73150964 209.74491292 74.36635262 213.77697285 86 217.8125 C87.01542877 218.16472626 88.03085754 218.51695251 89.07705688 218.87985229 C104.01399186 224.06190245 118.94361561 229.26464789 133.86984253 234.47744751 C148.75886227 239.67634621 163.65854213 244.84409274 178.5625 250 C179.65252319 250.37709106 180.74254639 250.75418213 181.86560059 251.1427002 C186.27524828 252.66817089 190.6849049 254.19361577 195.09457397 255.71902466 C206.73153959 259.74492475 218.36636782 263.77697812 230 267.8125 C231.01542877 268.16472626 232.03085754 268.51695251 233.07705688 268.87985229 C248.00797227 274.05981409 262.93201663 279.25923209 277.85171509 284.47140503 C288.59195891 288.22304539 299.33737863 291.95930015 310.08984375 295.67578125 C311.21044189 296.06310928 312.33104004 296.45043732 313.4855957 296.84950256 C318.00238536 298.41051981 322.51922571 299.97139014 327.03619385 301.53189087 C341.87447952 306.65954399 356.69624388 311.82903722 371.47363281 317.12988281 C372.59995117 317.53303711 373.72626953 317.93619141 374.88671875 318.3515625 C375.84924561 318.69783691 376.81177246 319.04411133 377.8034668 319.40087891 C379.71973787 320.17855431 379.71973787 320.17855431 380.9375 320.125 C384.07178204 305.85297325 387.20129622 291.57990809 390.32513428 277.30559158 C391.77568996 270.67783838 393.22780514 264.05043406 394.68359375 257.42382812 C396.08789733 251.03155609 397.48785243 244.6383409 398.88513184 238.24452972 C399.41954907 235.80252125 399.95543521 233.36083377 400.49279785 230.91947174 C401.24385463 227.50606601 401.98973105 224.09156736 402.734375 220.67675781 C402.95879272 219.66255768 403.18321045 218.64835754 403.41442871 217.60342407 C403.71733826 216.20684067 403.71733826 216.20684067 404.02636719 214.78204346 C404.20335144 213.9745528 404.38033569 213.16706215 404.56268311 212.33510208 C405.04897005 209.84132855 405.04897005 209.84132855 404.9375 206.125 C375.69929601 194.1676336 346.43890234 182.26711354 317.14726257 170.44126892 C304.27291057 165.24279351 291.40742426 160.02245312 278.54148865 154.80319214 C273.46977766 152.74594004 268.39719757 150.69084224 263.32421875 148.63671875 C249.68711563 143.11394668 236.05350673 137.58282155 222.4296875 132.02734375 C221.33504684 131.58098068 220.24040619 131.13461761 219.1125946 130.67472839 C216.85060447 129.75232379 214.58861617 128.82991467 212.32662964 127.90750122 C192.13718761 119.67467578 171.93350589 111.47846421 151.71212769 103.32440186 C135.10584826 96.62719598 118.51679584 89.88871287 101.9375 83.125 C81.77241581 74.89870652 61.59015402 66.71605123 41.39111328 58.57348633 C31.42982039 54.5574629 21.47193225 50.53380053 11.52734375 46.4765625 C9.7728775 45.76161367 8.01840188 45.04668781 6.26391602 44.33178711 C3.0480148 43.02123751 -0.16605896 41.70633679 -3.37915039 40.38891602 C-4.78655183 39.81509701 -6.19401819 39.24143721 -7.6015625 38.66796875 C-8.81021973 38.17321045 -10.01887695 37.67845215 -11.26416016 37.16870117 C-13.87704419 36.00851445 -13.87704419 36.00851445 -16.0625 36.125 Z M-270.0625 135.125 C-278.8803031 176.34462746 -287.53187622 217.599142 -296.14302713 258.86235821 C-297.15218491 263.69740281 -298.16291525 268.53211706 -299.17428589 273.36669922 C-300.5553086 279.96857407 -301.93303463 286.57112873 -303.30856514 293.17415047 C-303.82436035 295.6478482 -304.34116966 298.12133471 -304.85902214 300.59460258 C-305.57206561 304.0012122 -306.28138948 307.40857534 -306.98974609 310.81616211 C-307.30744792 312.32777546 -307.30744792 312.32777546 -307.63156796 313.86992645 C-307.82166219 314.78823997 -308.01175642 315.7065535 -308.20761108 316.6526947 C-308.37378622 317.44912856 -308.53996136 318.24556242 -308.7111721 319.06613064 C-309.14660488 321.26977065 -309.14660488 321.26977065 -309.0625 324.125 C-116.6725 324.125 75.7175 324.125 273.9375 324.125 C271.03590459 322.19060306 268.68450835 321.23481254 265.40429688 320.11645508 C264.26031433 319.72398087 263.11633179 319.33150665 261.93768311 318.92713928 C260.06587372 318.29224831 260.06587372 318.29224831 258.15625 317.64453125 C256.84371192 317.1957975 255.53131648 316.74664637 254.21905518 316.29710388 C251.42040781 315.33918766 248.62090091 314.38384468 245.82067871 313.43054199 C241.40918702 311.92856016 236.99975279 310.42060828 232.59082031 308.91113281 C231.85896641 308.66057444 231.1271125 308.41001606 230.37308121 308.15186501 C228.89715697 307.64653854 227.42124167 307.14118594 225.94533539 306.63580704 C223.73217963 305.87815469 221.51884608 305.12102362 219.30548096 304.36398315 C207.75098294 300.41083165 196.21341119 296.41077272 184.6875 292.375 C181.29962152 291.18969689 177.91158209 290.0048547 174.5234375 288.8203125 C173.68068268 288.5256459 172.83792786 288.23097931 171.96963501 287.92738342 C160.75905261 284.01054014 149.53525913 280.13178152 138.3125 276.25 C136.10847673 275.48755776 133.90445654 274.72510659 131.70043945 273.96264648 C130.60964584 273.58529861 129.51885223 273.20795074 128.39500427 272.81916809 C127.3043013 272.44185043 126.21359833 272.06453278 125.08984375 271.67578125 C123.99781143 271.29802048 122.90577911 270.9202597 121.78065491 270.53105164 C110.14361015 266.50513436 98.50870815 262.47304824 86.875 258.4375 C85.85957123 258.08527374 84.84414246 257.73304749 83.79794312 257.37014771 C68.86100814 252.18809755 53.93138439 246.98535211 39.00515747 241.77255249 C20.80801473 235.41853434 2.59368173 229.11449945 -15.62188721 222.8135376 C-16.71475037 222.43549988 -17.80761353 222.05746216 -18.93359375 221.66796875 C-20.02694031 221.2897699 -21.12028687 220.91157104 -22.24676514 220.52191162 C-38.81020189 214.79160775 -55.36720971 209.0427603 -71.92489624 203.29586792 C-79.12001566 200.79870121 -86.3157501 198.30331207 -93.51171875 195.80859375 C-113.609229 188.84047061 -133.70195991 181.85923713 -153.7828064 174.8432312 C-170.59751324 168.96994674 -187.43199345 163.1543945 -204.27017212 157.3487854 C-216.31742918 153.19486718 -228.36103663 149.03187565 -240.3828125 144.8046875 C-241.33096329 144.47149002 -242.27911407 144.13829254 -243.2559967 143.79499817 C-247.65953015 142.24675951 -252.06164026 140.69464256 -256.46166992 139.13647461 C-257.99134605 138.59741503 -259.52104812 138.05842905 -261.05078125 137.51953125 C-261.74064117 137.27367279 -262.4305011 137.02781433 -263.14126587 136.77450562 C-266.52021529 135.53577004 -266.52021529 135.53577004 -270.0625 135.125 Z M-398.0625 425.125 C-398.0625 674.605 -398.0625 924.085 -398.0625 1181.125 C-178.9425 1181.125 40.1775 1181.125 265.9375 1181.125 C266.2675 1134.925 266.5975 1088.725 266.9375 1041.125 C283.9375 1024.125 283.9375 1024.125 416.9375 1023.125 C416.9375 825.785 416.9375 628.445 416.9375 425.125 C147.9875 425.125 -120.9625 425.125 -398.0625 425.125 Z M-487.0625 625.125 C-487.0625 676.935 -487.0625 728.745 -487.0625 782.125 C-470.5625 782.125 -454.0625 782.125 -437.0625 782.125 C-437.0625 730.315 -437.0625 678.505 -437.0625 625.125 C-453.5625 625.125 -470.0625 625.125 -487.0625 625.125 Z M455.9375 625.125 C455.9375 677.265 455.9375 729.405 455.9375 783.125 C472.4375 783.125 488.9375 783.125 505.9375 783.125 C505.9375 730.985 505.9375 678.845 505.9375 625.125 C489.4375 625.125 472.9375 625.125 455.9375 625.125 Z M-592.0625 674.125 C-592.0625 693.925 -592.0625 713.725 -592.0625 734.125 C-569.9525 734.125 -547.8425 734.125 -525.0625 734.125 C-525.0625 714.325 -525.0625 694.525 -525.0625 674.125 C-547.1725 674.125 -569.2825 674.125 -592.0625 674.125 Z M543.9375 674.125 C543.9375 693.925 543.9375 713.725 543.9375 734.125 C566.0475 734.125 588.1575 734.125 610.9375 734.125 C610.9375 714.325 610.9375 694.525 610.9375 674.125 C588.8275 674.125 566.7175 674.125 543.9375 674.125 Z M303.9375 1061.125 C303.9375 1091.815 303.9375 1122.505 303.9375 1154.125 C309.6424606 1149.25865431 309.6424606 1149.25865431 315.04417419 1144.14530945 C315.77741409 1143.41488937 316.51065399 1142.6844693 317.26611328 1141.93191528 C318.04510986 1141.15089447 318.82410645 1140.36987366 319.62670898 1139.56518555 C320.88645287 1138.30807014 320.88645287 1138.30807014 322.17164612 1137.02555847 C324.45403114 1134.74679823 326.7341805 1132.46583175 329.01315951 1130.18366599 C331.40327052 1127.79100911 333.7958363 1125.40080886 336.18800354 1123.01020813 C340.19671419 1119.00331057 344.20332501 1114.99432244 348.20874023 1110.98413086 C352.84387799 1106.34352982 357.48263728 1101.70657221 362.12325042 1097.07144707 C366.11245831 1093.08676831 370.09972545 1089.1001554 374.0853582 1085.11190063 C376.4640732 1082.73162461 378.84346363 1080.35203436 381.22460747 1077.97418785 C383.87017506 1075.33114292 386.51254471 1072.68494307 389.15405273 1070.0378418 C389.94721893 1069.24669983 390.74038513 1068.45555786 391.55758667 1067.64044189 C392.2710878 1066.92412094 392.98458893 1066.20779999 393.7197113 1065.46977234 C394.34481315 1064.84429347 394.96991499 1064.2188146 395.61395931 1063.57438183 C397.04988712 1062.32905561 397.04988712 1062.32905561 396.9375 1061.125 C366.2475 1061.125 335.5575 1061.125 303.9375 1061.125 Z " fill="#FFFFFF" transform="translate(630.0625,5.875)"/>
<path d="M0 0 C208.89 0 417.78 0 633 0 C633 12.87 633 25.74 633 39 C424.11 39 215.22 39 0 39 C0 26.13 0 13.26 0 0 Z " fill="#FFFFFF" transform="translate(335,898)"/>
<path d="M0 0 C208.89 0 417.78 0 633 0 C633 12.87 633 25.74 633 39 C424.11 39 215.22 39 0 39 C0 26.13 0 13.26 0 0 Z " fill="#FFFFFF" transform="translate(335,774)"/>
<path d="M0 0 C12.54 0 25.08 0 38 0 C38 38.94 38 77.88 38 118 C88.49 118 138.98 118 191 118 C191 79.06 191 40.12 191 0 C203.54 0 216.08 0 229 0 C229.40790856 17.68231304 229.73877789 35.36055145 229.93261909 53.046278 C230.02505572 61.25995337 230.15081702 69.47047799 230.35791016 77.68212891 C230.53854318 84.848062 230.65372356 92.01171269 230.69359291 99.17985928 C230.71687129 102.96939249 230.77064812 106.75240333 230.90314102 110.53982162 C231.82624277 138.19443533 231.82624277 138.19443533 222.59912109 148.84716797 C209.34605959 161.29048862 187.63282031 158.60989099 170.79536247 158.41785908 C165.49056611 158.37183612 160.18629212 158.41467349 154.88146973 158.44281006 C145.97739739 158.47543168 137.07602434 158.43274801 128.17236328 158.34667969 C117.92161777 158.2487251 107.67731731 158.28046642 97.42672777 158.37955499 C88.57889208 158.46161432 79.73298104 158.47258889 70.88488722 158.42565894 C65.62077883 158.39779398 60.35968606 158.39328066 55.09577942 158.45331573 C17.0271811 158.8242201 17.0271811 158.8242201 6.40087891 148.84716797 C-3.40629285 137.52476621 -2.31752233 122.38525179 -1.82509089 108.30869436 C-1.71110002 104.48969391 -1.70188289 100.6703231 -1.68063354 96.84988403 C-1.62509971 89.64446804 -1.47800382 82.44407924 -1.29634273 75.24085915 C-1.09381313 67.02849648 -0.99585565 58.815869 -0.9058249 50.6016233 C-0.71861825 33.7310239 -0.38910803 16.86733433 0 0 Z " fill="#FFFFFF" transform="translate(720,499)"/>
<path d="M0 0 C12.54 0 25.08 0 38 0 C38 38.94 38 77.88 38 118 C88.49 118 138.98 118 191 118 C191 79.06 191 40.12 191 0 C203.54 0 216.08 0 229 0 C229.40790856 17.68231304 229.73877789 35.36055145 229.93261909 53.046278 C230.02505572 61.25995337 230.15081702 69.47047799 230.35791016 77.68212891 C230.53854318 84.848062 230.65372356 92.01171269 230.69359291 99.17985928 C230.71687129 102.96939249 230.77064812 106.75240333 230.90314102 110.53982162 C231.82624277 138.19443533 231.82624277 138.19443533 222.59912109 148.84716797 C209.34605959 161.29048862 187.63282031 158.60989099 170.79536247 158.41785908 C165.49056611 158.37183612 160.18629212 158.41467349 154.88146973 158.44281006 C145.97739739 158.47543168 137.07602434 158.43274801 128.17236328 158.34667969 C117.92161777 158.2487251 107.67731731 158.28046642 97.42672777 158.37955499 C88.57889208 158.46161432 79.73298104 158.47258889 70.88488722 158.42565894 C65.62077883 158.39779398 60.35968606 158.39328066 55.09577942 158.45331573 C17.0271811 158.8242201 17.0271811 158.8242201 6.40087891 148.84716797 C-3.40629285 137.52476621 -2.31752233 122.38525179 -1.82509089 108.30869436 C-1.71110002 104.48969391 -1.70188289 100.6703231 -1.68063354 96.84988403 C-1.62509971 89.64446804 -1.47800382 82.44407924 -1.29634273 75.24085915 C-1.09381313 67.02849648 -0.99585565 58.815869 -0.9058249 50.6016233 C-0.71861825 33.7310239 -0.38910803 16.86733433 0 0 Z " fill="#FFFFFF" transform="translate(330,499)"/>
</svg>
